# xmcd
# 
# Track frame offsets:
#     150
#     14355
#     28007
#     43718
#     55926
#     68197
#     82410
#     91259
#     104979
#     118026
#     137073
#     150379
#     162684
#     176084
#     190721
#     205313
#     216511
#     231867
#     243784
#     257113
#     270310
#     284058
#     297161
#     311470
# 
# Disc length: 4264
# 
# Revision: 3
# Processed by: cddbd v1.5.2PL0 Copyright (c) Steve Scherf et al.
# Submitted via: fre:ac v1.0.17
# 
DISCID=6f10a618
DTITLE=John Steinbeck - The Grapes of Wrath [CD04)
DYEAR=1939
DGENRE=Audiobook
TTITLE0=Chapter 08.13
TTITLE1=Chapter 08.14
TTITLE2=Chapter 08.15
TTITLE3=Chapter 08.16
TTITLE4=Chapter 08.17
TTITLE5=Chapter 08.18
TTITLE6=Chapter 08.19
TTITLE7=Chapter 09.01
TTITLE8=Chapter 09.02
TTITLE9=Chapter 09.03
TTITLE10=Chapter 10.01
TTITLE11=Chapter 10.02
TTITLE12=Chapter 10.03
TTITLE13=Chapter 10.04
TTITLE14=Chapter 10.05
TTITLE15=Chapter 10.06
TTITLE16=Chapter 10.07
TTITLE17=Chapter 10.08
TTITLE18=Chapter 10.09
TTITLE19=Chapter 10.10
TTITLE20=Chapter 10.11
TTITLE21=Chapter 10.12
TTITLE22=Chapter 10.13
TTITLE23=Chapter 10.14
EXTD=The Grapes of Wrath by John Steinbeck\nread by Dylan Baker recorded books 18 CDs\nnational folk YEAR: 1939
EXTT0=
EXTT1=
EXTT2=
EXTT3=
EXTT4=
EXTT5=
EXTT6=
EXTT7=
EXTT8=
EXTT9=
EXTT10=
EXTT11=
EXTT12=
EXTT13=
EXTT14=
EXTT15=
EXTT16=
EXTT17=
EXTT18=
EXTT19=
EXTT20=
EXTT21=
EXTT22=
EXTT23=
PLAYORDER=
